<svg xmlns="http://www.w3.org/2000/svg" id="Capa_1" data-name="Capa 1" viewBox="0 0 562.01 179.61"><defs fill="#ffffff"><style>.cls-1{fill:#ffffff;}</style></defs><path d="M122.28,236.81l28-39c-4.57-6.12-9-12.13-13.56-18a5.44,5.44,0,0,0-2.78-1.61c-6.12-1.69-12.24-3.36-18.42-4.83a11.19,11.19,0,0,0-4.77.22c-3.65.79-7.21,2.07-10.88,2.65-6.27,1-10.91,3.86-14.21,9.45-2.46,4.16-5.72,7.86-8.93,12.16l27.73,38.67-.63.87c-5.72-3.23-13.2-2.77-17-10-5-9.49-10.56-18.66-15.73-28a5.6,5.6,0,0,1-.31-4.12q6.54-17.51,13.41-34.86a7.58,7.58,0,0,1,2.73-3.35c8-5.31,16.06-10.56,24.24-15.59a5.23,5.23,0,0,1,4.55-.09c8.28,5.1,16.44,10.41,24.55,15.79a7.66,7.66,0,0,1,2.61,3.44c4.51,11.47,9,23,13.21,34.53a6.46,6.46,0,0,1-.43,4.78c-5.22,9.51-10.69,18.88-16,28.33a10.16,10.16,0,0,1-6.36,5.26c-3.54,1-6.92,2.66-10.37,4Z" transform="translate(-33 -140.78)" fill="#ffffff"/><path d="M74.29,274c1.31-1.55,2.64-3.16,4-4.74,2.27-2.61,4.58-5.19,7.2-8.16L98,279.21,113.48,256l15.46,23.19,12.59-18.08,15.65,11.65c-5.72,2.56-11,4.93-16.26,7.27-8.52,3.8-17,7.62-25.59,11.32a5.31,5.31,0,0,1-3.78.27c-12.25-5.5-24.44-11.15-36.63-16.78C74.72,274.73,74.61,274.44,74.29,274Z" transform="translate(-33 -140.78)" fill="#ffffff"/><path d="M180.75,240.37c-.75,3.55-1.39,6.52-2.26,10.6l-7.08-17.29-17.95,13.74c0-4.9-.22-8.93.06-12.93.33-4.61-.5-8.61-4.13-11.77a24.79,24.79,0,0,1-2.43-3.18c8.41,3.24,15.78,6.46,23.41,8.9a23.79,23.79,0,0,1,13.29,10c3.37,5.07,7.34,9.74,10.61,15Z" transform="translate(-33 -140.78)" fill="#ffffff"/><path d="M78.58,220.42c0,.38.12.56.08.6-6.53,5.57-5,13.15-5.11,20.33,0,1.73,0,3.47,0,6.08l-18-13.72L48.51,250.9l-2.34-10.69L34.78,253.83,33,252.16c2.86-3.79,6-7.39,8.51-11.41,4.33-7,10.37-11.3,18.25-13.58,5.59-1.61,10.94-4.07,16.41-6.12A22.36,22.36,0,0,1,78.58,220.42Z" transform="translate(-33 -140.78)" fill="#ffffff"/><path d="M122.7,181.11c-3.89,11.12-7.68,22.28-11.83,33.31-.42,1.11-3.09,1.37-4.72,2l-.6-.89q4.76-13.7,9.5-27.41a24,24,0,0,0,1.23-3.51C116.94,181,119,179.93,122.7,181.11Z" transform="translate(-33 -140.78)" fill="#ffffff"/><path d="M124.15,208.17c-1.2-3.62.26-5,3.16-5.76,2.7-.73,5.27-1.94,8.53-3.18l-11.93-4.47v-4.53c5.53,2.1,10.85,4,16.05,6.19.76.32,1.38,1.92,1.36,2.9s-.69,2.58-1.49,2.91C134.69,204.35,129.43,206.21,124.15,208.17Z" transform="translate(-33 -140.78)" fill="#ffffff"/><path d="M104,190.37c1.36,3.37.16,4.78-2.65,5.58s-5.35,1.94-8.93,3.27c3.44,1.29,6.07,2.46,8.82,3.26s4,2.23,2.85,5.7c-5.43-2.06-10.86-4-16.14-6.21-1.84-.78-1.32-5,.62-5.73C93.66,194.23,98.77,192.36,104,190.37Z" transform="translate(-33 -140.78)" fill="#ffffff"/><path class="cls-1" d="M166.93,195.12l0,7.69a1.72,1.72,0,0,0,.88,1.44,3.66,3.66,0,0,0,2.11.6h7.72q9.65,0,9.65,7.58a7.52,7.52,0,0,1-.68,3.26,6.88,6.88,0,0,1-2,2.5,9.49,9.49,0,0,1-3.06,1.62,13,13,0,0,1-4,.57H159.35v-5.74h16.9a5,5,0,0,0,2.46-.51,1.56,1.56,0,0,0,.9-1.4,1.68,1.68,0,0,0-.83-1.32,4.93,4.93,0,0,0-2.53-.75,7.2,7.2,0,0,1-.75,0h-4.56a37.57,37.57,0,0,1-4-.18,14.36,14.36,0,0,1-2.82-.58,6.24,6.24,0,0,1-2-1,7,7,0,0,1-1.39-1.55,7.19,7.19,0,0,1-1.43-4.55,7.11,7.11,0,0,1,1.92-5.05,9.17,9.17,0,0,1,5.32-2.64Zm2-.17h18.3v6L170,200.87a5.35,5.35,0,0,0-.61,0,3.91,3.91,0,0,0-.48.05Z" transform="translate(-33 -140.78)" fill="#ffffff"/><path class="cls-1" d="M190.49,207.74a12.62,12.62,0,0,1,1.13-5.36,12.26,12.26,0,0,1,3.16-4.2,14.36,14.36,0,0,1,4.89-2.73,19.55,19.55,0,0,1,6.33-1h1.05a19.55,19.55,0,0,1,6.33,1,14.36,14.36,0,0,1,4.89,2.73,12.26,12.26,0,0,1,3.16,4.2,13.25,13.25,0,0,1,0,10.71,12.26,12.26,0,0,1-3.16,4.2,14.54,14.54,0,0,1-4.89,2.74,19.83,19.83,0,0,1-6.33,1H206a19.83,19.83,0,0,1-6.33-1,14.54,14.54,0,0,1-4.89-2.74,12.26,12.26,0,0,1-3.16-4.2A12.57,12.57,0,0,1,190.49,207.74Zm16.7-7.08h-1.36a8.54,8.54,0,0,0-3.4.79,5.57,5.57,0,0,0-1.24.8,5.19,5.19,0,0,0-1.07,1.2,5.88,5.88,0,0,0-.75,1.7,8.7,8.7,0,0,0-.27,2.28,9.28,9.28,0,0,0,.64,3.57,6.7,6.7,0,0,0,.73,1.33,5.14,5.14,0,0,0,1.14,1.14,6,6,0,0,0,1.63.79,7.24,7.24,0,0,0,2.25.31h2.07a7,7,0,0,0,2.21-.31,6,6,0,0,0,1.65-.79,4.84,4.84,0,0,0,1.16-1.14,6.7,6.7,0,0,0,.73-1.33,9.28,9.28,0,0,0,.64-3.57,8.7,8.7,0,0,0-.27-2.28,5.88,5.88,0,0,0-.75-1.7,5.19,5.19,0,0,0-1.07-1.2,5.57,5.57,0,0,0-1.24-.8,8.5,8.5,0,0,0-3.4-.79Z" transform="translate(-33 -140.78)" fill="#ffffff"/><path class="cls-1" d="M225.85,194.92h8.06v25.53h-8.06Zm27.92,25.53H236.5v-7.14h17.27Z" transform="translate(-33 -140.78)" fill="#ffffff"/><path class="cls-1" d="M271.38,220.42a19.87,19.87,0,0,1-4.62-.48,15.32,15.32,0,0,1-3.51-1.24,11,11,0,0,1-6-9.23V194.92h7.95v12.85c0,2,.52,3.47,1.57,4.3a7,7,0,0,0,4.45,1.24h3.3v7.11Zm13.84,0h-8.09V194.92h8.09Z" transform="translate(-33 -140.78)" fill="#ffffff"/><path class="cls-1" d="M303.2,214.43h11l0,6H302.39a28.46,28.46,0,0,1-3.64-.51,11.91,11.91,0,0,1-3.45-1.16,12.84,12.84,0,0,1-2.94-2,12.3,12.3,0,0,1-2.18-2.62,9,9,0,0,1-1.19-3q-.17-1.09-.27-1.92a11.58,11.58,0,0,1-.1-1.42,12.21,12.21,0,0,1,1.09-5.21,11.76,11.76,0,0,1,3.06-4.07,14,14,0,0,1,4.76-2.63,19,19,0,0,1,6.15-.94h10.51v6H303.54a7.78,7.78,0,0,0-3.29.78,5.8,5.8,0,0,0-1.19.78,5.12,5.12,0,0,0-1,1.17,5.87,5.87,0,0,0-.73,1.64,7.9,7.9,0,0,0-.27,2.19,9.25,9.25,0,0,0,.61,3.47,7,7,0,0,0,.71,1.27,4.68,4.68,0,0,0,1.11,1.11,6.29,6.29,0,0,0,1.58.78A7,7,0,0,0,303.2,214.43Z" transform="translate(-33 -140.78)" fill="#ffffff"/><path class="cls-1" d="M317.65,194.92h8.47v25.53h-8.47Z" transform="translate(-33 -140.78)" fill="#ffffff"/><path class="cls-1" d="M329.38,207.74a12.76,12.76,0,0,1,1.12-5.36,12.42,12.42,0,0,1,3.17-4.2,14.36,14.36,0,0,1,4.89-2.73,19.55,19.55,0,0,1,6.33-1h1.05a19.55,19.55,0,0,1,6.33,1,14.36,14.36,0,0,1,4.89,2.73,12.26,12.26,0,0,1,3.16,4.2,13.25,13.25,0,0,1,0,10.71,12.26,12.26,0,0,1-3.16,4.2,14.54,14.54,0,0,1-4.89,2.74,19.83,19.83,0,0,1-6.33,1h-1.05a19.83,19.83,0,0,1-6.33-1,14.54,14.54,0,0,1-4.89-2.74,12.42,12.42,0,0,1-3.17-4.2A12.72,12.72,0,0,1,329.38,207.74Zm16.7-7.08h-1.36a8.5,8.5,0,0,0-3.4.79,5.57,5.57,0,0,0-1.24.8,5.46,5.46,0,0,0-1.08,1.2,6.15,6.15,0,0,0-.74,1.7,8.7,8.7,0,0,0-.27,2.28,9.28,9.28,0,0,0,.64,3.57,6.7,6.7,0,0,0,.73,1.33,5.14,5.14,0,0,0,1.14,1.14,5.89,5.89,0,0,0,1.63.79,7.24,7.24,0,0,0,2.25.31h2.07a7,7,0,0,0,2.21-.31,6,6,0,0,0,1.65-.79,5,5,0,0,0,1.16-1.14,6.7,6.7,0,0,0,.73-1.33,9.28,9.28,0,0,0,.64-3.57,8.7,8.7,0,0,0-.27-2.28,5.88,5.88,0,0,0-.75-1.7,5.19,5.19,0,0,0-1.07-1.2,5.57,5.57,0,0,0-1.24-.8,8.54,8.54,0,0,0-3.4-.79Z" transform="translate(-33 -140.78)" fill="#ffffff"/><path class="cls-1" d="M364.71,194.92h8.09v25.53h-8.09Zm20.3,0h8.05v25.5h-8l-10.13-13.26V196.11l10.07,12Z" transform="translate(-33 -140.78)" fill="#ffffff"/><path class="cls-1" d="M396.43,220.42v-25.5h24.86v6h-16.5l0,19.52h-8.4Zm10.85-15.85h14v6h-14Zm0,9.86h14v6h-14Z" transform="translate(-33 -140.78)" fill="#ffffff"/><path class="cls-1" d="M432.61,195.12l0,7.69a1.72,1.72,0,0,0,.88,1.44,3.68,3.68,0,0,0,2.11.6h7.72q9.66,0,9.66,7.58a7.67,7.67,0,0,1-.68,3.26,7,7,0,0,1-2,2.5,9.49,9.49,0,0,1-3.06,1.62,13,13,0,0,1-4,.57H425v-5.74h16.9a5,5,0,0,0,2.47-.51,1.56,1.56,0,0,0,.9-1.4,1.7,1.7,0,0,0-.83-1.32,5,5,0,0,0-2.54-.75,7.2,7.2,0,0,1-.75,0h-4.55a37.64,37.64,0,0,1-4-.18,14.36,14.36,0,0,1-2.82-.58,6.19,6.19,0,0,1-1.95-1,6.76,6.76,0,0,1-1.4-1.55,7.19,7.19,0,0,1-1.43-4.55,7.08,7.08,0,0,1,1.93-5.05,9.14,9.14,0,0,1,5.32-2.64Zm2-.17h18.29v6l-17.24-.07a5.35,5.35,0,0,0-.61,0,3.91,3.91,0,0,0-.48.05Z" transform="translate(-33 -140.78)" fill="#ffffff"/><path class="cls-1" d="M256.35,248.62H245v-8.31h11.4Zm26.53,0-12.94-.09.05,24.73H259.52V240.31h23.36Z" transform="translate(-33 -140.78)" fill="#ffffff"/><path class="cls-1" d="M287.19,273.22v-33h32.17V248H298l0,25.26H287.19Zm14-20.51h18.13v7.75H301.23Zm0,12.76h18.13v7.75H301.23Z" transform="translate(-33 -140.78)" fill="#ffffff"/><path class="cls-1" d="M343,265.47h14.21l0,7.75H342a37.16,37.16,0,0,1-4.71-.66,15.25,15.25,0,0,1-4.46-1.5,17,17,0,0,1-3.81-2.64,15.84,15.84,0,0,1-2.81-3.39,11.25,11.25,0,0,1-1.54-3.82q-.22-1.41-.36-2.49a17.34,17.34,0,0,1-.13-1.83,15.94,15.94,0,0,1,1.41-6.75,15.39,15.39,0,0,1,4-5.26,18.26,18.26,0,0,1,6.16-3.41,25.08,25.08,0,0,1,8-1.21h13.6V248H343.47a10.21,10.21,0,0,0-4.27,1,8,8,0,0,0-1.54,1,6.61,6.61,0,0,0-1.34,1.52,7.72,7.72,0,0,0-.95,2.11,10.4,10.4,0,0,0-.35,2.84,12,12,0,0,0,.79,4.49,9.17,9.17,0,0,0,.93,1.65,5.88,5.88,0,0,0,1.43,1.43,7.77,7.77,0,0,0,2,1A9.06,9.06,0,0,0,343,265.47Z" transform="translate(-33 -140.78)" fill="#ffffff"/><path class="cls-1" d="M361.73,240.22h10.86v33H361.73Zm25,20.5H374.93V253h11.79v-12.8h10.91v33H386.72Z" transform="translate(-33 -140.78)" fill="#ffffff"/><path class="cls-1" d="M203.7,296.35V295a8.84,8.84,0,0,1,.33-2.54,5.3,5.3,0,0,1,.95-1.85,4.12,4.12,0,0,1,1.46-1.14,4.44,4.44,0,0,1,1.87-.39,4.53,4.53,0,0,1,1.91.39,4.12,4.12,0,0,1,1.46,1.14,5.3,5.3,0,0,1,.95,1.85A8.82,8.82,0,0,1,213,295v1.33a8.85,8.85,0,0,1-.34,2.53,5.44,5.44,0,0,1-.95,1.86,4.24,4.24,0,0,1-1.47,1.14,4.82,4.82,0,0,1-3.75,0,4.18,4.18,0,0,1-1.48-1.14,5.44,5.44,0,0,1-.95-1.86A8.87,8.87,0,0,1,203.7,296.35ZM205,295v1.33a7.72,7.72,0,0,0,.22,1.94,4.46,4.46,0,0,0,.65,1.48,2.89,2.89,0,0,0,1,1,3,3,0,0,0,1.42.33,3.12,3.12,0,0,0,1.47-.33,2.86,2.86,0,0,0,1-1,4.43,4.43,0,0,0,.62-1.48,8.24,8.24,0,0,0,.21-1.94V295a7.7,7.7,0,0,0-.23-1.94,4.31,4.31,0,0,0-.66-1.47,3.06,3.06,0,0,0-1-.95,2.88,2.88,0,0,0-1.43-.34,2.81,2.81,0,0,0-1.39.34,2.89,2.89,0,0,0-1,.95,4.5,4.5,0,0,0-.65,1.47A7.72,7.72,0,0,0,205,295Z" transform="translate(-33 -140.78)" fill="#ffffff"/><path class="cls-1" d="M217.25,291.78v15.11H216V289.34h1.21Zm7.35,3.31v1.19a11.53,11.53,0,0,1-.27,2.66,5.3,5.3,0,0,1-.79,1.86,3.43,3.43,0,0,1-1.28,1.1,4.4,4.4,0,0,1-3.39,0,3.46,3.46,0,0,1-1.24-.94,4.67,4.67,0,0,1-.82-1.41,8.18,8.18,0,0,1-.42-1.8v-3.9a9.1,9.1,0,0,1,.45-2,5.07,5.07,0,0,1,.82-1.51,3.51,3.51,0,0,1,1.22-1,3.83,3.83,0,0,1,1.63-.34,4.35,4.35,0,0,1,1.74.34,3.28,3.28,0,0,1,1.29,1.06,4.91,4.91,0,0,1,.8,1.86A12.64,12.64,0,0,1,224.6,295.09Zm-1.29,1.19v-1.19a10.71,10.71,0,0,0-.18-2.11,4.51,4.51,0,0,0-.57-1.47,2.51,2.51,0,0,0-1-.88,3.12,3.12,0,0,0-1.38-.28,3,3,0,0,0-1.4.3,2.83,2.83,0,0,0-1,.79,3.91,3.91,0,0,0-.61,1.07,6.6,6.6,0,0,0-.33,1.14v4.44a5.2,5.2,0,0,0,.59,1.46,3.1,3.1,0,0,0,1.07,1.09,3.5,3.5,0,0,0,3,.12,2.52,2.52,0,0,0,1-.88,4.57,4.57,0,0,0,.57-1.48A10.89,10.89,0,0,0,223.31,296.28Z" transform="translate(-33 -140.78)" fill="#ffffff"/><path class="cls-1" d="M231.74,289.34v1.17h-5.42v-1.17Zm-3.47-3.25h1.31v12.83a3.71,3.71,0,0,0,.19,1.33,1.1,1.1,0,0,0,.49.59,1.49,1.49,0,0,0,.66.15,2.74,2.74,0,0,0,.5,0l.44-.08,0,1.2a2.74,2.74,0,0,1-.56.13,4.28,4.28,0,0,1-.72.05,2.36,2.36,0,0,1-1.19-.3,2.11,2.11,0,0,1-.84-1,5.17,5.17,0,0,1-.31-2Z" transform="translate(-33 -140.78)" fill="#ffffff"/><path class="cls-1" d="M234.53,285.68a1,1,0,0,1,.23-.68.75.75,0,0,1,.62-.28.76.76,0,0,1,.64.28,1,1,0,0,1,.23.68,1,1,0,0,1-.23.67.78.78,0,0,1-.64.27.77.77,0,0,1-.62-.27A1,1,0,0,1,234.53,285.68Zm1.5,3.66V302h-1.3V289.34Z" transform="translate(-33 -140.78)" fill="#ffffff"/><path class="cls-1" d="M240.9,292V302h-1.31V289.34h1.25Zm-.24,2.94-.62-.34a8.39,8.39,0,0,1,.34-2.11,6.07,6.07,0,0,1,.82-1.74,3.85,3.85,0,0,1,1.31-1.17,3.85,3.85,0,0,1,3.16-.17,2.71,2.71,0,0,1,1.09.78,3.57,3.57,0,0,1,.7,1.39,7.64,7.64,0,0,1,.24,2.05V302h-1.29v-8.39a5,5,0,0,0-.32-2,2,2,0,0,0-.89-1,2.81,2.81,0,0,0-1.33-.3,2.53,2.53,0,0,0-1.5.43,3.17,3.17,0,0,0-1,1.13,5.71,5.71,0,0,0-.55,1.48A7.46,7.46,0,0,0,240.66,294.89Zm7-1.1-.87,0a6.25,6.25,0,0,1,.35-1.78,5.31,5.31,0,0,1,.85-1.51,4,4,0,0,1,1.29-1.06,3.69,3.69,0,0,1,1.72-.39,3.85,3.85,0,0,1,1.49.27,2.62,2.62,0,0,1,1.1.82,4,4,0,0,1,.69,1.45,8,8,0,0,1,.23,2.11V302h-1.31v-8.29a5.13,5.13,0,0,0-.32-2.06,2,2,0,0,0-.88-1,2.69,2.69,0,0,0-1.33-.28,2.53,2.53,0,0,0-1.3.32,2.84,2.84,0,0,0-.92.84,3.8,3.8,0,0,0-.56,1.12A4.58,4.58,0,0,0,247.69,293.79Z" transform="translate(-33 -140.78)" fill="#ffffff"/><path class="cls-1" d="M257.9,285.68a1,1,0,0,1,.22-.68.86.86,0,0,1,1.27,0,1,1,0,0,1,.23.68,1,1,0,0,1-.23.67.88.88,0,0,1-1.27,0A1,1,0,0,1,257.9,285.68Zm1.5,3.66V302h-1.31V289.34Z" transform="translate(-33 -140.78)" fill="#ffffff"/><path class="cls-1" d="M270.34,290.39,263.17,302h-.8V301l7.16-11.61h.81Zm-.56-1.05v1.23h-7.23v-1.23Zm1,11.46V302h-7.92V300.8Z" transform="translate(-33 -140.78)" fill="#ffffff"/><path class="cls-1" d="M280.06,294.62l0,1.11h-2.26a6,6,0,0,0-1.61.19,3.36,3.36,0,0,0-1.15.58,2.44,2.44,0,0,0-.7.9,2.75,2.75,0,0,0-.23,1.17,3.05,3.05,0,0,0,.27,1.38,1.7,1.7,0,0,0,.8.79,3,3,0,0,0,1.25.25,3.53,3.53,0,0,0,1.68-.39,3.45,3.45,0,0,0,1.21-1,3.29,3.29,0,0,0,.61-1.35l.35.79a4,4,0,0,1-.43,1.09,4.79,4.79,0,0,1-.82,1.06,4.17,4.17,0,0,1-1.2.79,3.88,3.88,0,0,1-1.56.3,4,4,0,0,1-1.82-.39,2.83,2.83,0,0,1-1.22-1.2,4.62,4.62,0,0,1-.12-3.61,3.59,3.59,0,0,1,.9-1.29,4.2,4.2,0,0,1,1.5-.85,6.65,6.65,0,0,1,2.1-.3Zm-.29,5.13v-6.91a3,3,0,0,0-.3-1.44,1.78,1.78,0,0,0-.89-.82,3.69,3.69,0,0,0-1.47-.26,2.94,2.94,0,0,0-1.41.33,2.41,2.41,0,0,0-1,.89,2.46,2.46,0,0,0-.35,1.3h-1.3a3.59,3.59,0,0,1,.29-1.41,3.75,3.75,0,0,1,.84-1.18,3.92,3.92,0,0,1,1.29-.83,4.54,4.54,0,0,1,1.69-.31,5.29,5.29,0,0,1,2,.37,2.83,2.83,0,0,1,1.37,1.19,4.21,4.21,0,0,1,.5,2.21v6.49a10.7,10.7,0,0,0,.09,1.36,5.4,5.4,0,0,0,.25,1.15V302H280a5.67,5.67,0,0,1-.19-1.06C279.8,300.53,279.77,300.13,279.77,299.75Z" transform="translate(-33 -140.78)" fill="#ffffff"/><path class="cls-1" d="M294.13,289.34v1.17h-5.41v-1.17Zm-3.47-3.25H292v12.83a3.71,3.71,0,0,0,.19,1.33,1.1,1.1,0,0,0,.49.59,1.49,1.49,0,0,0,.66.15,2.74,2.74,0,0,0,.5,0l.44-.08,0,1.2a2.74,2.74,0,0,1-.56.13,4.28,4.28,0,0,1-.72.05,2.36,2.36,0,0,1-1.19-.3,2.11,2.11,0,0,1-.84-1,5.17,5.17,0,0,1-.31-2Z" transform="translate(-33 -140.78)" fill="#ffffff"/><path class="cls-1" d="M304,296.73l.64,0a9.6,9.6,0,0,1-.24,2.21,5.27,5.27,0,0,1-.73,1.76,3.52,3.52,0,0,1-1.29,1.16,4.26,4.26,0,0,1-1.93.41A3.68,3.68,0,0,1,299,302a2.8,2.8,0,0,1-1.1-.84,4.09,4.09,0,0,1-.72-1.48,8.3,8.3,0,0,1-.25-2.21v-8.12h1.3v8.14a6.2,6.2,0,0,0,.19,1.69,3,3,0,0,0,.51,1.08,1.89,1.89,0,0,0,.76.57,2.34,2.34,0,0,0,.91.18,3.14,3.14,0,0,0,2-.59,3.22,3.22,0,0,0,1.06-1.57A6.81,6.81,0,0,0,304,296.73Zm-.23,2.36v-9.75H305V302H303.8Z" transform="translate(-33 -140.78)" fill="#ffffff"/><path class="cls-1" d="M317.92,301.05a3.44,3.44,0,0,0,1.36-.27,2.27,2.27,0,0,0,1.05-.92,3.58,3.58,0,0,0,.47-1.77H322a4.71,4.71,0,0,1-.63,2.29,3.84,3.84,0,0,1-1.48,1.41,4.25,4.25,0,0,1-2,.47,5,5,0,0,1-2-.37,3.53,3.53,0,0,1-1.42-1.12,5.17,5.17,0,0,1-.86-1.83,9.73,9.73,0,0,1-.29-2.55V295a9.7,9.7,0,0,1,.29-2.54,5,5,0,0,1,.86-1.83,3.59,3.59,0,0,1,1.42-1.11,5,5,0,0,1,2-.38,4.45,4.45,0,0,1,2.07.49,3.59,3.59,0,0,1,1.46,1.48,5.68,5.68,0,0,1,.59,2.55H320.8a4.38,4.38,0,0,0-.44-1.91,2.44,2.44,0,0,0-1-1.06,3.06,3.06,0,0,0-1.42-.33,3.53,3.53,0,0,0-1.53.31,2.46,2.46,0,0,0-1,.91,4.15,4.15,0,0,0-.57,1.45,10.48,10.48,0,0,0-.17,2v1.43a10.51,10.51,0,0,0,.17,2,4.26,4.26,0,0,0,.57,1.47,2.37,2.37,0,0,0,1,.9A3.53,3.53,0,0,0,317.92,301.05Z" transform="translate(-33 -140.78)" fill="#ffffff"/><path class="cls-1" d="M324.74,285.68A1,1,0,0,1,325,285a.75.75,0,0,1,.62-.28.76.76,0,0,1,.64.28,1,1,0,0,1,.23.68,1,1,0,0,1-.23.67.78.78,0,0,1-.64.27.77.77,0,0,1-.62-.27A1,1,0,0,1,324.74,285.68Zm1.5,3.66V302h-1.3V289.34Z" transform="translate(-33 -140.78)" fill="#ffffff"/><path class="cls-1" d="M329.85,284h1.3v15.54l-.1,2.46h-1.2Zm8.67,11.07v1.19a11,11,0,0,1-.28,2.66,5.49,5.49,0,0,1-.79,1.86,3.36,3.36,0,0,1-1.28,1.1,4,4,0,0,1-1.73.36,3.76,3.76,0,0,1-1.66-.34,3.51,3.51,0,0,1-1.22-.94,5,5,0,0,1-.79-1.46,8.41,8.41,0,0,1-.42-1.84v-3.79a9.74,9.74,0,0,1,.45-2,5,5,0,0,1,.8-1.51,3.5,3.5,0,0,1,1.19-1,3.78,3.78,0,0,1,1.62-.34,4.4,4.4,0,0,1,1.75.34,3.21,3.21,0,0,1,1.29,1.06,5.07,5.07,0,0,1,.8,1.86A12,12,0,0,1,338.52,295.09Zm-1.31,1.19v-1.19A11.77,11.77,0,0,0,337,293a4.51,4.51,0,0,0-.54-1.47,2.43,2.43,0,0,0-.95-.88,3.15,3.15,0,0,0-1.4-.28,3,3,0,0,0-1.39.3,2.65,2.65,0,0,0-1,.79,3.91,3.91,0,0,0-.61,1.07,6.6,6.6,0,0,0-.33,1.14V298a4.61,4.61,0,0,0,.56,1.47,3.16,3.16,0,0,0,1.09,1.12,3.45,3.45,0,0,0,3,.15,2.37,2.37,0,0,0,.94-.87,4.3,4.3,0,0,0,.55-1.47A10.71,10.71,0,0,0,337.21,296.28Z" transform="translate(-33 -140.78)" fill="#ffffff"/><path class="cls-1" d="M345.69,302.26a5.22,5.22,0,0,1-1.93-.34,3.92,3.92,0,0,1-1.52-1.06,4.76,4.76,0,0,1-1-1.79,8.43,8.43,0,0,1-.35-2.56v-1.45a8.73,8.73,0,0,1,.37-2.72,5,5,0,0,1,1-1.84,4.06,4.06,0,0,1,1.47-1.06,4.55,4.55,0,0,1,1.72-.34,4.7,4.7,0,0,1,1.83.34,3.29,3.29,0,0,1,1.33,1,4.85,4.85,0,0,1,.82,1.74,10,10,0,0,1,.27,2.47v1.09h-8v-1.21h6.74v-.33a6.49,6.49,0,0,0-.34-2.12,2.6,2.6,0,0,0-2.61-1.8,3.18,3.18,0,0,0-1.32.27,2.64,2.64,0,0,0-1,.82,4,4,0,0,0-.68,1.47,9.11,9.11,0,0,0-.23,2.18v1.45a7.1,7.1,0,0,0,.25,2,3.8,3.8,0,0,0,.73,1.4,2.82,2.82,0,0,0,1.13.84,3.78,3.78,0,0,0,1.45.28,4.21,4.21,0,0,0,1.71-.34,4,4,0,0,0,1.32-1l.67.86a3.59,3.59,0,0,1-.84.86,4.17,4.17,0,0,1-1.23.62A5.38,5.38,0,0,1,345.69,302.26Z" transform="translate(-33 -140.78)" fill="#ffffff"/><path class="cls-1" d="M353.8,291.44V302h-1.3V289.34h1.27Zm3.68-2.19,0,1.31a2.53,2.53,0,0,0-.38-.07h-.42a2.51,2.51,0,0,0-1.3.32,2.82,2.82,0,0,0-.93.92,4.85,4.85,0,0,0-.59,1.37,7.41,7.41,0,0,0-.24,1.69l-.45.2a11.16,11.16,0,0,1,.22-2.3,6.24,6.24,0,0,1,.65-1.87,3.45,3.45,0,0,1,1.1-1.25,2.74,2.74,0,0,1,1.6-.46,2.37,2.37,0,0,1,.44,0A.92.92,0,0,1,357.48,289.25Z" transform="translate(-33 -140.78)" fill="#ffffff"/><path class="cls-1" d="M366.11,298.9a1.78,1.78,0,0,0-.27-1,3.11,3.11,0,0,0-.9-.86,12.78,12.78,0,0,0-1.71-.91q-.86-.39-1.53-.75a6.21,6.21,0,0,1-1.15-.77,3,3,0,0,1-.71-.93,2.8,2.8,0,0,1-.25-1.24,3.34,3.34,0,0,1,.26-1.32,3.15,3.15,0,0,1,.77-1.08,3.48,3.48,0,0,1,1.19-.72,4.57,4.57,0,0,1,1.57-.26,4.4,4.4,0,0,1,2.12.48,3.37,3.37,0,0,1,1.36,1.31,3.75,3.75,0,0,1,.48,1.92H366a2.44,2.44,0,0,0-.32-1.22,2.34,2.34,0,0,0-.9-.92,2.79,2.79,0,0,0-1.44-.35,2.94,2.94,0,0,0-1.43.31,2,2,0,0,0-.81.79,2.16,2.16,0,0,0-.25,1,1.85,1.85,0,0,0,.12.69,1.72,1.72,0,0,0,.43.57,3.81,3.81,0,0,0,.83.58c.36.21.81.44,1.35.71a16.54,16.54,0,0,1,2,1,4.26,4.26,0,0,1,1.3,1.17,2.84,2.84,0,0,1,.47,1.67,3.6,3.6,0,0,1-.28,1.42,3.07,3.07,0,0,1-.81,1.08,3.61,3.61,0,0,1-1.25.69,5.11,5.11,0,0,1-1.62.24,4.81,4.81,0,0,1-2.31-.51,3.5,3.5,0,0,1-1.42-1.35,3.63,3.63,0,0,1-.48-1.83h1.3a2.46,2.46,0,0,0,.5,1.52,2.36,2.36,0,0,0,1.1.75,4.3,4.3,0,0,0,1.31.2,3.4,3.4,0,0,0,1.46-.28,2,2,0,0,0,.9-.78A2,2,0,0,0,366.11,298.9Z" transform="translate(-33 -140.78)" fill="#ffffff"/><path class="cls-1" d="M374.65,302.26a5.31,5.31,0,0,1-1.94-.34,3.88,3.88,0,0,1-1.51-1.06,4.76,4.76,0,0,1-1-1.79,8.13,8.13,0,0,1-.35-2.56v-1.45a9.05,9.05,0,0,1,.36-2.72,5.16,5.16,0,0,1,1-1.84,4.11,4.11,0,0,1,1.46-1.06,4.6,4.6,0,0,1,1.73-.34,4.74,4.74,0,0,1,1.83.34,3.29,3.29,0,0,1,1.33,1,4.68,4.68,0,0,1,.81,1.74,9.49,9.49,0,0,1,.28,2.47v1.09h-8v-1.21h6.74v-.33a6.47,6.47,0,0,0-.35-2.12,2.69,2.69,0,0,0-1-1.33,2.73,2.73,0,0,0-1.63-.47,3.18,3.18,0,0,0-1.32.27,2.74,2.74,0,0,0-1.05.82,4.17,4.17,0,0,0-.67,1.47,8.62,8.62,0,0,0-.23,2.18v1.45a7.1,7.1,0,0,0,.25,2,3.94,3.94,0,0,0,.72,1.4,2.92,2.92,0,0,0,1.14.84,3.75,3.75,0,0,0,1.45.28,4.12,4.12,0,0,0,1.7-.34,3.79,3.79,0,0,0,1.32-1l.68.86a3.79,3.79,0,0,1-.84.86,4.43,4.43,0,0,1-1.23.62A5.42,5.42,0,0,1,374.65,302.26Z" transform="translate(-33 -140.78)" fill="#ffffff"/><path class="cls-1" d="M381,296.28v-1.19a11.41,11.41,0,0,1,.28-2.73,5.08,5.08,0,0,1,.82-1.86,3.26,3.26,0,0,1,1.31-1.06,4.31,4.31,0,0,1,1.73-.34,3.7,3.7,0,0,1,1.61.34,3.5,3.5,0,0,1,1.19,1,5,5,0,0,1,.8,1.51,9.1,9.1,0,0,1,.45,2v3.79a8.41,8.41,0,0,1-.42,1.84A5,5,0,0,1,388,301a3.51,3.51,0,0,1-1.22.94,3.71,3.71,0,0,1-1.65.34,4,4,0,0,1-1.71-.36,3.41,3.41,0,0,1-1.3-1.1,5.32,5.32,0,0,1-.82-1.86A11,11,0,0,1,381,296.28Zm7.45-6.94h1.2v13a6.15,6.15,0,0,1-.52,2.7,3.31,3.31,0,0,1-1.46,1.54,4.87,4.87,0,0,1-2.27.5,4.64,4.64,0,0,1-1.32-.21,5.1,5.1,0,0,1-1.33-.59,4.22,4.22,0,0,1-1.06-.95l.61-.93a4.51,4.51,0,0,0,1.42,1.1,3.54,3.54,0,0,0,1.6.37,3.61,3.61,0,0,0,1.66-.34,2.28,2.28,0,0,0,1-1.11,5,5,0,0,0,.35-2V292.13Zm-6.14,5.75v1.19a10.71,10.71,0,0,0,.18,2.11,4.3,4.3,0,0,0,.56,1.47,2.39,2.39,0,0,0,.95.87,3.12,3.12,0,0,0,1.38.28,3,3,0,0,0,1.65-.42,3.05,3.05,0,0,0,1.07-1.1,5.34,5.34,0,0,0,.59-1.5v-4.34a9.12,9.12,0,0,0-.34-1.14,3.91,3.91,0,0,0-.61-1.07,2.65,2.65,0,0,0-1-.79,3,3,0,0,0-1.39-.3,3.12,3.12,0,0,0-1.38.28,2.45,2.45,0,0,0-1,.88,4.3,4.3,0,0,0-.56,1.47A10.71,10.71,0,0,0,382.3,295.09Z" transform="translate(-33 -140.78)" fill="#ffffff"/><path class="cls-1" d="M400.14,296.73l.63,0a10.2,10.2,0,0,1-.23,2.21,5.49,5.49,0,0,1-.74,1.76,3.52,3.52,0,0,1-1.29,1.16,4.19,4.19,0,0,1-1.92.41,3.64,3.64,0,0,1-1.43-.26,2.83,2.83,0,0,1-1.11-.84,4.09,4.09,0,0,1-.72-1.48,8.74,8.74,0,0,1-.25-2.21v-8.12h1.3v8.14a6.62,6.62,0,0,0,.19,1.69,3,3,0,0,0,.52,1.08,1.86,1.86,0,0,0,.75.57,2.34,2.34,0,0,0,.91.18,3.19,3.19,0,0,0,2-.59,3.27,3.27,0,0,0,1.05-1.57A6.81,6.81,0,0,0,400.14,296.73Zm-.24,2.36v-9.75h1.29V302H400Z" transform="translate(-33 -140.78)" fill="#ffffff"/><path class="cls-1" d="M406,291.44V302h-1.3V289.34H406Zm3.68-2.19,0,1.31a2.53,2.53,0,0,0-.38-.07h-.42a2.47,2.47,0,0,0-1.29.32,2.84,2.84,0,0,0-.94.92,5.15,5.15,0,0,0-.59,1.37,8.71,8.71,0,0,0-.24,1.69l-.44.2a11.92,11.92,0,0,1,.21-2.3,6.53,6.53,0,0,1,.65-1.87,3.39,3.39,0,0,1,1.11-1.25,2.69,2.69,0,0,1,1.59-.46,2.28,2.28,0,0,1,.44,0A.92.92,0,0,1,409.66,289.25Z" transform="translate(-33 -140.78)" fill="#ffffff"/><path class="cls-1" d="M411.89,285.68a1,1,0,0,1,.23-.68.85.85,0,0,1,1.26,0,1,1,0,0,1,.23.68,1,1,0,0,1-.23.67.87.87,0,0,1-1.26,0A1,1,0,0,1,411.89,285.68Zm1.5,3.66V302h-1.3V289.34Z" transform="translate(-33 -140.78)" fill="#ffffff"/><path class="cls-1" d="M416.54,296.28v-1.19a11.36,11.36,0,0,1,.29-2.73,5.08,5.08,0,0,1,.83-1.86,3.3,3.3,0,0,1,1.3-1.06,4.33,4.33,0,0,1,1.72-.34,3.72,3.72,0,0,1,1.62.34,3.41,3.41,0,0,1,1.19,1,5,5,0,0,1,.8,1.51,9.76,9.76,0,0,1,.44,2v3.79a7.88,7.88,0,0,1-.41,1.84,5,5,0,0,1-.8,1.46,3.39,3.39,0,0,1-1.21.94,3.77,3.77,0,0,1-1.65.34,3.89,3.89,0,0,1-1.7-.36,3.41,3.41,0,0,1-1.3-1.1,5.32,5.32,0,0,1-.83-1.86A10.93,10.93,0,0,1,416.54,296.28Zm1.32-1.19v1.19a10.71,10.71,0,0,0,.18,2.11,4.3,4.3,0,0,0,.55,1.47,2.35,2.35,0,0,0,1,.87,3.49,3.49,0,0,0,3-.14,3.13,3.13,0,0,0,1.07-1.1,5.05,5.05,0,0,0,.59-1.5v-4.34a6.6,6.6,0,0,0-.33-1.14,4.18,4.18,0,0,0-.61-1.07,2.77,2.77,0,0,0-1-.79,3,3,0,0,0-1.39-.3,3.19,3.19,0,0,0-1.39.28,2.45,2.45,0,0,0-1,.88A4.3,4.3,0,0,0,418,293,10.71,10.71,0,0,0,417.86,295.09Zm6,4.47V284h1.29v18H424Z" transform="translate(-33 -140.78)" fill="#ffffff"/><path class="cls-1" d="M435.43,294.62l0,1.11H433.2a6,6,0,0,0-1.61.19,3.27,3.27,0,0,0-1.15.58,2.34,2.34,0,0,0-.7.9,2.75,2.75,0,0,0-.24,1.17,3,3,0,0,0,.28,1.38,1.7,1.7,0,0,0,.8.79,2.91,2.91,0,0,0,1.24.25,3.54,3.54,0,0,0,2.9-1.41,3.43,3.43,0,0,0,.61-1.35l.35.79a4,4,0,0,1-.43,1.09,4.79,4.79,0,0,1-.82,1.06,4.17,4.17,0,0,1-1.2.79,3.88,3.88,0,0,1-1.56.3,4.1,4.1,0,0,1-1.83-.39,2.86,2.86,0,0,1-1.21-1.2,4.27,4.27,0,0,1-.43-2,4.07,4.07,0,0,1,.31-1.62,3.59,3.59,0,0,1,.9-1.29,4.2,4.2,0,0,1,1.5-.85,6.65,6.65,0,0,1,2.1-.3Zm-.28,5.13v-6.91a3,3,0,0,0-.3-1.44,1.82,1.82,0,0,0-.89-.82,3.69,3.69,0,0,0-1.47-.26,3,3,0,0,0-1.42.33,2.39,2.39,0,0,0-1.32,2.19h-1.3a3.59,3.59,0,0,1,.29-1.41,3.72,3.72,0,0,1,.83-1.18,4,4,0,0,1,1.3-.83,4.54,4.54,0,0,1,1.69-.31,5.29,5.29,0,0,1,2,.37,2.83,2.83,0,0,1,1.37,1.19,4.21,4.21,0,0,1,.5,2.21v6.49a10.7,10.7,0,0,0,.09,1.36,5.4,5.4,0,0,0,.25,1.15V302h-1.37a5,5,0,0,1-.19-1.06A10.41,10.41,0,0,1,435.15,299.75Z" transform="translate(-33 -140.78)" fill="#ffffff"/><path class="cls-1" d="M439.54,296.28v-1.19a11.41,11.41,0,0,1,.28-2.73,5.08,5.08,0,0,1,.83-1.86,3.26,3.26,0,0,1,1.31-1.06,4.28,4.28,0,0,1,1.71-.34,3.72,3.72,0,0,1,1.62.34,3.32,3.32,0,0,1,1.19,1,5,5,0,0,1,.8,1.51,10.47,10.47,0,0,1,.45,2v3.79a8.41,8.41,0,0,1-.42,1.84,4.77,4.77,0,0,1-.8,1.46,3.39,3.39,0,0,1-1.21.94,3.77,3.77,0,0,1-1.65.34,3.92,3.92,0,0,1-1.7-.36,3.41,3.41,0,0,1-1.3-1.1,5.32,5.32,0,0,1-.83-1.86A11,11,0,0,1,439.54,296.28Zm1.31-1.19v1.19a10.71,10.71,0,0,0,.18,2.11,4.3,4.3,0,0,0,.56,1.47,2.33,2.33,0,0,0,1,.87,3.13,3.13,0,0,0,4.1-1.24,5.05,5.05,0,0,0,.59-1.5v-4.34a6.6,6.6,0,0,0-.33-1.14,4.18,4.18,0,0,0-.61-1.07,2.69,2.69,0,0,0-1-.79,3,3,0,0,0-1.39-.3,3.12,3.12,0,0,0-1.38.28,2.45,2.45,0,0,0-1,.88A4.3,4.3,0,0,0,441,293,10.71,10.71,0,0,0,440.85,295.09Zm6,4.47V284h1.29v18H447Z" transform="translate(-33 -140.78)" fill="#ffffff"/><text x="-33" y="-140.78" fill="#ffffff"/><text x="-33" y="-140.78" fill="#ffffff"/><text x="-33" y="-140.78" fill="#ffffff"/><text x="-33" y="-140.78" fill="#ffffff"/></svg>